# xmcd
#
# Track frame offsets:
#	150
#	18317
#	36852
#	58250
#
# Disc length: 1018 seconds
#
# Revision: 1
# Processed by: cddbd v1.5.1PL2 Copyright (c) Steve Scherf et al.
# Submitted via: audiograbber 1.83.01
#
DISCID=2e03f804
DTITLE=Orton, Beth - Central Reservation
DYEAR=1999
DGENRE=Rock
TTITLE0=Central Reservation
TTITLE1=Central Reservation (Spiritual Life - Ibadan Remix [Edit])
TTITLE2=Central Reservation (William Orbit Remix)
TTITLE3=Central Reservation (Deep Dish Modern Red Neck [Edit])
EXTD=
EXTT0=
EXTT1=
EXTT2=
EXTT3=
PLAYORDER=
